<?xml version="1.0" encoding="UTF-8"?>
<svg id="Layer_1" data-name="Layer 1" xmlns="http://www.w3.org/2000/svg" viewBox="0 0 260.87 79.36">
  <defs>
    <style>
      .cls-1 {
        fill: #7500c1;
        stroke-width: 0px;
      }
    </style>
  </defs>
  <g>
    <path class="cls-1" d="M80.28,38.65l17.66,21.3h-9.68l-16.54-20.36v20.36h-7.57V18.88h7.57v18.36l16.02-18.36h9.39l-16.84,18.77v1h-.01Z"/>
    <path class="cls-1" d="M122.14,32.14c2.21,1.92,3.31,4.62,3.31,8.1v19.71h-7.27v-2.52h-1.06c-.94,1.02-2.19,1.82-3.75,2.41-1.57.59-3.23.88-4.99.88-3.28,0-5.88-.83-7.77-2.49-1.9-1.66-2.85-3.88-2.85-6.66s.98-5.19,2.93-6.89,4.73-2.55,8.33-2.55h9.09v-1.41c0-1.53-.45-2.72-1.35-3.58-.9-.86-2.29-1.29-4.17-1.29-1.6,0-2.91.34-3.93,1.03s-1.62,1.65-1.82,2.9h-7.8c.31-3.13,1.68-5.66,4.11-7.6,2.42-1.94,5.61-2.9,9.56-2.9s7.21.96,9.42,2.88v-.02ZM114.57,53.64c1.35-.68,2.53-1.69,3.55-3.02v-3.28h-8.33c-1.45,0-2.56.3-3.34.91s-1.17,1.5-1.17,2.67.45,2.14,1.35,2.79c.9.64,2.09.97,3.58.97s3.02-.34,4.37-1.03h-.01Z"/>
    <path class="cls-1" d="M153.88,32.14c2.21,1.92,3.31,4.62,3.31,8.1v19.71h-7.27v-2.52h-1.06c-.94,1.02-2.19,1.82-3.75,2.41-1.57.59-3.23.88-4.99.88-3.28,0-5.88-.83-7.77-2.49-1.9-1.66-2.85-3.88-2.85-6.66s.98-5.19,2.93-6.89,4.73-2.55,8.33-2.55h9.09v-1.41c0-1.53-.45-2.72-1.35-3.58-.9-.86-2.29-1.29-4.17-1.29-1.6,0-2.91.34-3.93,1.03-1.02.69-1.62,1.65-1.82,2.9h-7.8c.31-3.13,1.68-5.66,4.11-7.6,2.42-1.94,5.61-2.9,9.56-2.9s7.21.96,9.42,2.88v-.02ZM146.31,53.64c1.35-.68,2.53-1.69,3.55-3.02v-3.28h-8.33c-1.45,0-2.56.3-3.34.91s-1.18,1.5-1.18,2.67.45,2.14,1.35,2.79c.9.64,2.09.97,3.58.97s3.02-.34,4.37-1.03h0Z"/>
    <path class="cls-1" d="M167.52,59.33c-2-.92-3.51-2.15-4.55-3.7-1.04-1.54-1.61-3.26-1.73-5.13h7.33c.23,1.17.9,2.13,1.99,2.87,1.1.74,2.54,1.12,4.34,1.12,1.92,0,3.32-.33,4.22-1s1.35-1.54,1.35-2.64-.34-1.79-1.03-2.2-1.67-.68-2.96-.79l-5.16-.53c-3.05-.31-5.35-1.18-6.89-2.61s-2.32-3.35-2.32-5.78c0-1.92.51-3.61,1.52-5.07,1.02-1.47,2.47-2.6,4.34-3.4,1.88-.8,4.07-1.2,6.57-1.2,3.75,0,6.7.82,8.83,2.46,2.13,1.64,3.33,3.91,3.61,6.81h-7.33c-.2-.94-.74-1.68-1.64-2.23s-2.07-.82-3.52-.82c-1.57,0-2.79.27-3.67.82s-1.32,1.33-1.32,2.35c0,.9.38,1.58,1.15,2.05.76.47,2,.78,3.73.94l4.63.47c2.89.27,5.09,1.07,6.6,2.38,1.51,1.31,2.26,3.33,2.26,6.07,0,3.09-1.15,5.55-3.46,7.39s-5.53,2.76-9.68,2.76c-2.82,0-5.22-.46-7.22-1.38h.01Z"/>
    <path class="cls-1" d="M192.8,59.95V18.88h7.33v14.61h1.06c.7-1.17,1.81-2.17,3.31-2.99,1.51-.82,3.33-1.23,5.49-1.23,3.36,0,6.02,1.03,7.98,3.08,1.95,2.05,2.93,4.86,2.93,8.42v19.18h-7.33v-16.78c0-2.19-.55-3.88-1.64-5.07-1.1-1.19-2.64-1.79-4.63-1.79-2.23,0-3.98.75-5.25,2.26s-1.91,3.55-1.91,6.13v15.25h-7.34Z"/>
    <path class="cls-1" d="M228.82,71.68l6.98-14.9-12.32-26.75h8.16l6.04,14.02c.59,1.29,1.15,2.78,1.7,4.46h1c.39-1.49.92-2.97,1.58-4.46l5.87-14.02h8.04l-18.89,41.65h-8.16,0Z"/>
  </g>
  <g>
    <path class="cls-1" d="M26.96,76.94c-5.27-5.26-15.56-19.59,4.39-38.04l16.64,18.42c1.24,1.38,1.16,3.5-.21,4.76l-16.08,14.95c-1.35,1.25-3.44,1.22-4.74-.09Z"/>
    <path class="cls-1" d="M47.13,17.69l-1.5-1.63-8.72,7.85c-1.71,1.54-3.86,2.38-6.07,2.38h-.04c-2.25,0-4.28-.9-5.72-2.5s-2.11-3.71-1.89-5.95c.22-2.21,1.28-4.28,3.01-5.82l8.61-7.76-1.67-1.81c-.63-.68-1.49-1.03-2.34-1.03-.77,0-1.54.28-2.15.84L11.18,18.28C-.69,29.18-1.47,47.63,9.42,59.49l.53.58,11.26,12.27c-.33-.51-.65-1.03-.94-1.56-.77-1.41-1.38-2.91-1.83-4.46-.05-.15-.1-.31-.14-.47-.05-.15-.09-.32-.14-.47-.02-.05-.03-.11-.04-.15-.1-.39-.18-.76-.25-1.15-.12-.59-.19-1.18-.25-1.77-.02-.17-.03-.36-.04-.54-.06-.99-.05-1.98.05-2.96.04-.47.1-.95.17-1.41l.07-.54c.06-.43.18-.85.27-1.27.72-3.42,2.28-6.62,4.23-9.49,1.98-2.86,4.39-5.39,6.94-7.73h.02v-.02l.13-.12c.2-.19.41-.39.63-.58l16.84-15.45c1.29-1.19,1.39-3.2.19-4.49Z"/>
    <path class="cls-1" d="M35.86,5.42l-8.62,7.76c-1.43,1.28-2.31,3-2.5,4.82-.17,1.79.36,3.48,1.49,4.74,1.14,1.26,2.77,1.97,4.57,1.99,1.84,0,3.63-.69,5.05-1.99l8.71-7.85-8.72-9.49h0ZM31.1,21.27c-.37.09-.76.07-1.12-.06-2.61-.94-2.42-4.42.28-5.05.37-.09.76-.07,1.12.06,2.61.94,2.42,4.42-.28,5.05Z"/>
  </g>
</svg>